<svg width="248" height="131" viewBox="0 0 248 131" fill="none" xmlns="http://www.w3.org/2000/svg">
<g clip-path="url(#clip0_2300_827)">
<rect width="248" height="131" rx="8" fill="#FF7517"/>
<path d="M69.3285 21.2H71.6325V38H69.4245L59.7045 24.944V38H57.4005V21.2H59.5845L69.3285 34.256V21.2ZM87.0883 32.6H77.5363C77.8003 34.928 79.3123 36.296 81.5923 36.296C83.1043 36.296 84.3763 35.696 85.3603 34.496L86.8243 35.792C85.6483 37.424 83.7763 38.336 81.5443 38.336C77.8003 38.336 75.2323 35.72 75.2323 31.952C75.2323 28.232 77.7763 25.496 81.3523 25.496C84.7363 25.496 87.1603 27.944 87.1603 31.52C87.1603 31.88 87.1363 32.24 87.0883 32.6ZM77.5843 30.872H84.8803C84.6883 28.76 83.3443 27.56 81.3523 27.56C79.3123 27.56 77.9443 28.784 77.5843 30.872ZM101.432 32.6H91.8801C92.1441 34.928 93.6561 36.296 95.9361 36.296C97.4481 36.296 98.7201 35.696 99.7041 34.496L101.168 35.792C99.9921 37.424 98.1201 38.336 95.8881 38.336C92.1441 38.336 89.5761 35.72 89.5761 31.952C89.5761 28.232 92.1201 25.496 95.6961 25.496C99.0801 25.496 101.504 27.944 101.504 31.52C101.504 31.88 101.48 32.24 101.432 32.6ZM91.9281 30.872H99.2241C99.0321 28.76 97.6881 27.56 95.6961 27.56C93.6561 27.56 92.2881 28.784 91.9281 30.872ZM114.072 20.432H116.328V38H114.072V35.84C113.376 37.376 111.648 38.336 109.656 38.336C106.368 38.336 103.92 35.672 103.92 31.928C103.92 28.16 106.368 25.496 109.656 25.496C111.648 25.496 113.376 26.456 114.072 27.992V20.432ZM114.168 31.928C114.168 29.36 112.608 27.584 110.232 27.584C109.056 27.584 108.096 27.992 107.352 28.808C106.632 29.6 106.272 30.656 106.272 31.928C106.272 33.2 106.632 34.232 107.352 35.048C108.096 35.84 109.056 36.248 110.232 36.248C111.408 36.248 112.368 35.84 113.088 35.048C113.808 34.232 114.168 33.2 114.168 31.928ZM136.675 30.176V38H134.419V30.728C134.419 28.544 133.579 27.584 131.755 27.584C129.667 27.584 128.203 28.832 128.203 30.824V38H125.947V20.432H128.203V27.824C128.899 26.36 130.435 25.496 132.355 25.496C135.067 25.496 136.675 27.2 136.675 30.176ZM151.729 32.6H142.177C142.441 34.928 143.953 36.296 146.233 36.296C147.745 36.296 149.017 35.696 150.001 34.496L151.465 35.792C150.289 37.424 148.417 38.336 146.185 38.336C142.441 38.336 139.873 35.72 139.873 31.952C139.873 28.232 142.417 25.496 145.993 25.496C149.377 25.496 151.801 27.944 151.801 31.52C151.801 31.88 151.777 32.24 151.729 32.6ZM142.225 30.872H149.521C149.329 28.76 147.985 27.56 145.993 27.56C143.953 27.56 142.585 28.784 142.225 30.872ZM155.057 38V20.432H157.313V38H155.057ZM173.816 31.928C173.816 35.672 171.416 38.336 168.104 38.336C166.088 38.336 164.384 37.376 163.688 35.84V42.8H161.432V25.832H163.688V27.992C164.384 26.456 166.088 25.496 168.104 25.496C171.416 25.496 173.816 28.16 173.816 31.928ZM171.488 31.928C171.488 30.656 171.128 29.6 170.384 28.808C169.664 27.992 168.704 27.584 167.528 27.584C165.152 27.584 163.592 29.36 163.592 31.928C163.592 33.2 163.952 34.232 164.672 35.048C165.392 35.84 166.352 36.248 167.528 36.248C168.704 36.248 169.664 35.84 170.384 35.048C171.128 34.232 171.488 33.2 171.488 31.928ZM184.563 32.72V31.592C184.563 30.8 184.683 30.152 184.923 29.696C185.163 29.216 185.643 28.664 186.387 28.04L187.539 27.08C188.427 26.336 188.763 25.688 188.763 25.016C188.763 23.768 187.827 23 186.363 23C184.899 23 183.579 23.816 182.739 25.256L181.011 24.08C181.947 22.136 183.963 20.864 186.387 20.864C189.195 20.864 191.091 22.544 191.091 24.92C191.091 26.192 190.491 27.296 188.931 28.616L187.803 29.576C186.939 30.272 186.771 30.632 186.771 31.616V32.72H184.563ZM184.083 36.608C184.083 35.672 184.707 35.072 185.667 35.072C186.627 35.072 187.251 35.672 187.251 36.608C187.251 37.568 186.627 38.216 185.667 38.216C184.707 38.216 184.083 37.568 184.083 36.608Z" fill="#050505"/>
<rect x="55" y="67" width="138.876" height="43.8039" rx="13.6275" fill="#050505"/>
<path d="M86.8047 87.4073H90.7876V91.4628C89.9881 92.4948 88.4909 93.1054 86.7321 93.1054C83.4615 93.149 81.2956 90.8814 81.3247 87.8433C81.3247 84.7181 83.5051 82.5232 86.5431 82.5232C88.331 82.5232 89.7555 83.25 90.5695 84.5146L89.4793 85.2996C88.8543 84.3693 87.8368 83.8605 86.5576 83.8605C84.3191 83.8605 82.8219 85.4594 82.8219 87.8579C82.8219 90.2999 84.3482 91.7826 86.7321 91.7826C87.8949 91.7826 88.8834 91.4483 89.4212 90.925V88.6864H86.8047V87.4073ZM99.6879 89.6313H93.9026C94.0625 91.0413 94.9783 91.8698 96.3592 91.8698C97.2749 91.8698 98.0453 91.5064 98.6413 90.7796L99.528 91.5645C98.8157 92.553 97.6819 93.1054 96.3301 93.1054C94.0625 93.1054 92.5071 91.5209 92.5071 89.2388C92.5071 86.9857 94.048 85.3286 96.2138 85.3286C98.2634 85.3286 99.7315 86.8113 99.7315 88.9771C99.7315 89.1952 99.717 89.4132 99.6879 89.6313ZM93.9317 88.5847H98.3506C98.2343 87.3055 97.4203 86.5787 96.2138 86.5787C94.9783 86.5787 94.1497 87.3201 93.9317 88.5847ZM102.128 90.9395V86.7095H100.675V85.5321H102.128V83.3517H103.495V85.5321H105.748V86.7095H103.495V90.8087C103.495 91.5209 103.829 91.8117 104.643 91.8117C104.977 91.8117 105.355 91.7681 105.777 91.6808V92.8292C105.355 92.96 104.905 93.0181 104.425 93.0181C102.899 93.0181 102.128 92.3204 102.128 90.9395ZM110.263 90.7505L111.382 90.0673C111.92 91.1866 113.039 91.8117 114.449 91.8117C115.903 91.8117 116.789 91.1575 116.789 90.1255C116.789 89.3551 116.266 88.8609 115.045 88.5556L113.402 88.1631C111.513 87.7125 110.568 86.7968 110.568 85.4158C110.568 83.7297 111.978 82.5232 114.26 82.5232C116.077 82.5232 117.473 83.2645 118.01 84.3838L116.92 85.0961C116.411 84.2675 115.452 83.8169 114.246 83.8169C112.85 83.8169 112.022 84.4129 112.022 85.4013C112.022 86.1572 112.516 86.6078 113.795 86.8985L115.437 87.3055C117.371 87.7707 118.257 88.6719 118.257 90.0673C118.257 91.8843 116.847 93.1054 114.42 93.1054C112.37 93.1054 110.888 92.2187 110.263 90.7505ZM120.012 90.14V85.5321H121.378V90.0383C121.378 91.2157 122.047 91.8407 123.224 91.8407C124.402 91.8407 125.07 91.2157 125.07 90.0383V85.5321H126.437V90.14C126.437 91.0413 126.146 91.7681 125.565 92.3059C124.983 92.8437 124.198 93.1054 123.224 93.1054C121.306 93.1054 120.012 91.9134 120.012 90.14ZM136.303 89.2243C136.303 91.4919 134.849 93.1054 132.843 93.1054C131.622 93.1054 130.59 92.5239 130.169 91.5936V95.809H128.802V85.5321H130.169V86.8404C130.59 85.9101 131.622 85.3286 132.843 85.3286C134.849 85.3286 136.303 86.9421 136.303 89.2243ZM134.893 89.2243C134.893 88.4539 134.675 87.8143 134.224 87.3346C133.788 86.8404 133.207 86.5933 132.494 86.5933C131.055 86.5933 130.11 87.6689 130.11 89.2243C130.11 89.9947 130.328 90.6197 130.765 91.1139C131.201 91.5936 131.782 91.8407 132.494 91.8407C133.207 91.8407 133.788 91.5936 134.224 91.1139C134.675 90.6197 134.893 89.9947 134.893 89.2243ZM145.814 89.2243C145.814 91.4919 144.36 93.1054 142.354 93.1054C141.133 93.1054 140.101 92.5239 139.679 91.5936V95.809H138.313V85.5321H139.679V86.8404C140.101 85.9101 141.133 85.3286 142.354 85.3286C144.36 85.3286 145.814 86.9421 145.814 89.2243ZM144.404 89.2243C144.404 88.4539 144.185 87.8143 143.735 87.3346C143.299 86.8404 142.717 86.5933 142.005 86.5933C140.566 86.5933 139.621 87.6689 139.621 89.2243C139.621 89.9947 139.839 90.6197 140.275 91.1139C140.711 91.5936 141.293 91.8407 142.005 91.8407C142.717 91.8407 143.299 91.5936 143.735 91.1139C144.185 90.6197 144.404 89.9947 144.404 89.2243ZM147.315 89.2243C147.315 87.102 148.841 85.3286 151.138 85.3286C153.406 85.3286 154.946 87.102 154.946 89.2243C154.946 91.361 153.406 93.1054 151.138 93.1054C148.841 93.1054 147.315 91.361 147.315 89.2243ZM153.522 89.2243C153.522 87.6689 152.577 86.5933 151.138 86.5933C150.426 86.5933 149.844 86.8404 149.394 87.3346C148.958 87.8143 148.74 88.4539 148.74 89.2243C148.74 89.9947 148.958 90.6197 149.394 91.1139C149.844 91.5936 150.426 91.8407 151.138 91.8407C151.85 91.8407 152.432 91.5936 152.868 91.1139C153.304 90.6197 153.522 89.9947 153.522 89.2243ZM161.182 85.5176V86.7531C160.978 86.7095 160.746 86.695 160.498 86.695C159.088 86.695 158.304 87.4945 158.304 89.1661V92.9019H156.937V85.5321H158.304V86.8549C158.652 85.9391 159.466 85.4158 160.528 85.4158C160.775 85.4158 160.993 85.4449 161.182 85.5176ZM163.608 90.9395V86.7095H162.154V85.5321H163.608V83.3517H164.974V85.5321H167.227V86.7095H164.974V90.8087C164.974 91.5209 165.309 91.8117 166.123 91.8117C166.457 91.8117 166.835 91.7681 167.257 91.6808V92.8292C166.835 92.96 166.384 93.0181 165.905 93.0181C164.378 93.0181 163.608 92.3204 163.608 90.9395Z" fill="white"/>
<path d="M305.5 164C305.5 188.48 280.759 208.5 250 208.5C219.241 208.5 194.5 188.48 194.5 164C194.5 139.52 219.241 119.5 250 119.5C280.759 119.5 305.5 139.52 305.5 164Z" stroke="#050505"/>
<path d="M44.5 9C44.5 33.4801 19.7594 53.5 -11 53.5C-41.7594 53.5 -66.5 33.4801 -66.5 9C-66.5 -15.4801 -41.7594 -35.5 -11 -35.5C19.7594 -35.5 44.5 -15.4801 44.5 9Z" stroke="#050505"/>
<path d="M58.5 -10C58.5 14.4801 33.7594 34.5 3 34.5C-27.7594 34.5 -52.5 14.4801 -52.5 -10C-52.5 -34.4801 -27.7594 -54.5 3 -54.5C33.7594 -54.5 58.5 -34.4801 58.5 -10Z" stroke="#050505"/>
</g>
<defs>
<clipPath id="clip0_2300_827">
<rect width="248" height="131" rx="8" fill="white"/>
</clipPath>
</defs>
</svg>
